<svg width="18" height="24" viewBox="0 0 18 24" fill="none" xmlns="http://www.w3.org/2000/svg">
<path fill-rule="evenodd" clip-rule="evenodd" d="M18 9.01216C18 4.03518 13.9702 0 9 0C4.02975 0 2.36384e-05 4.03518 2.36384e-05 9.01216C-0.00244707 11.1654 0.317098 12.6573 1.53845 14.6143C2.75981 16.5712 9 24 9 24C9 24 15.2402 16.5712 16.4615 14.6143C17.6837 12.6573 18.0033 11.1654 18 9.01216ZM8.99999 5.81506H8.99504C7.18072 5.81506 5.70818 7.19477 5.70571 9.10886C5.70324 11.023 7.17166 12.4125 8.98516 12.4125H8.99999H9.01481C10.8283 12.4125 12.2976 11.023 12.2943 9.10886C12.291 7.19477 10.8193 5.81506 9.00493 5.81506H8.99999Z" fill="white"/>
</svg>
