<svg width="40" height="54" viewBox="0 0 40 54" fill="none" xmlns="http://www.w3.org/2000/svg">
<path d="M20 0C31.045 0 39.9999 9.07916 39.9999 20.2774C40.0073 25.1222 39.2972 28.4789 36.5812 32.8821C33.8671 37.2853 20 54 20 54C20 54 6.13289 37.2853 3.41876 32.8821C0.704642 28.4789 -0.00545895 25.1222 3.15224e-05 20.2774C3.15224e-05 9.07916 8.95499 0 20 0Z" fill="#18428C"/>
<path d="M19.989 13.0837C19.9926 13.0837 19.9963 13.0837 20 13.0837C20.0036 13.0837 20.0073 13.0837 20.0109 13.0837C24.0428 13.0837 27.3133 16.1881 27.3206 20.4948C27.3279 24.8015 24.0629 27.9281 20.0329 27.9281C20.0219 27.9281 20.0109 27.9281 20 27.9281C19.989 27.9281 19.978 27.9281 19.967 27.9281C15.937 27.9281 12.6738 24.8015 12.6793 20.4948C12.6848 16.1881 15.9571 13.0837 19.989 13.0837Z" fill="white"/>
</svg>
