<svg width="24" height="24" viewBox="0 0 24 24" fill="none" xmlns="http://www.w3.org/2000/svg">
<g clip-path="url(#clip0_5_562)">
<path fill-rule="evenodd" clip-rule="evenodd" d="M24.1613 12C24.1613 18.628 18.7893 24 12.1613 24C5.53332 24 0.161316 18.628 0.161316 12C0.161316 5.372 5.53332 0 12.1613 0C18.7893 0 24.1613 5.372 24.1613 12ZM13.2373 8.56669L5.15466 11.896C3.73333 12.4507 4.56666 12.972 4.56666 12.972C4.56666 12.972 5.78 13.3894 6.82 13.7C7.86133 14.0134 8.416 13.6667 8.416 13.6667L13.3053 10.3707C15.0387 9.19069 14.624 10.1614 14.2067 10.5787C13.3067 11.48 11.816 12.9027 10.5667 14.0467C10.012 14.532 10.288 14.9494 10.532 15.1574C11.2381 15.7539 12.8979 16.8384 13.6537 17.3322C13.8641 17.4697 14.0045 17.5614 14.0347 17.584C14.208 17.724 15.18 18.348 15.7693 18.2094C16.3587 18.0707 16.428 17.2734 16.428 17.2734L17.2947 11.828C17.3663 11.3553 17.4378 10.8917 17.505 10.4555C17.6993 9.19545 17.8582 8.16457 17.884 7.80403C17.9893 6.62403 16.74 7.10936 16.74 7.10936C16.74 7.10936 14.0347 8.22003 13.2373 8.56669Z" fill="#0A7CCB"/>
</g>
<defs>
<clipPath id="clip0_5_562">
<rect width="24" height="24" fill="white"/>
</clipPath>
</defs>
</svg>
