<svg width="24" height="24" viewBox="0 0 24 24" fill="none" xmlns="http://www.w3.org/2000/svg">
<g clip-path="url(#clip0_5_560)">
<path d="M23.0733 7.14933C22.4746 5.75067 21.6106 4.48933 20.5453 3.43067C19.4773 2.37067 18.2066 1.51333 16.7973 0.92C15.3866 0.328 13.8386 0 12.2133 0C10.588 0 9.03864 0.328 7.6293 0.92C6.21997 1.51333 4.9493 2.37067 3.8813 3.43067C2.81463 4.48933 1.9493 5.75067 1.3533 7.14933C0.755967 8.54933 0.425301 10.0867 0.425301 11.6987C0.425301 12.2213 0.459967 12.7387 0.529301 13.252C0.598634 13.7653 0.701301 14.272 0.837301 14.7693C0.973301 15.2667 1.14263 15.7547 1.34263 16.2307C1.54263 16.7067 1.7773 17.1693 2.0413 17.616L1.53597 19.1093L1.0293 20.6013L0.523967 22.0947L0.0173005 23.588C0.00663379 23.616 0.00130046 23.644 -3.28775e-05 23.6733C-0.00136621 23.7013 0.00130046 23.7307 0.00796712 23.7573C0.0146338 23.784 0.0239671 23.812 0.0373005 23.8373C0.0506338 23.8627 0.0679671 23.8853 0.0893005 23.9067C0.103967 23.9227 0.119967 23.9347 0.1373 23.9467C0.154634 23.9587 0.1733 23.9693 0.191967 23.976C0.210634 23.9827 0.230634 23.9893 0.250634 23.9933C0.270634 23.9973 0.290634 24 0.311967 24C0.319967 24 0.327967 24 0.335967 23.9987C0.343967 23.9987 0.351967 23.9973 0.359967 23.996C0.367967 23.9947 0.375967 23.9933 0.383967 23.992C0.391967 23.9893 0.399967 23.988 0.407967 23.9853L1.96397 23.4907L3.51997 22.996L5.0773 22.5013L6.6333 22.0067C7.05997 22.2347 7.49863 22.4347 7.95063 22.608C8.4013 22.7813 8.86263 22.9267 9.33197 23.044C9.8013 23.16 10.2773 23.248 10.7586 23.308C11.24 23.3667 11.7266 23.396 12.2133 23.396C13.8386 23.396 15.3866 23.0693 16.7973 22.476C18.2066 21.884 19.4773 21.0253 20.5453 19.9667C21.612 18.908 22.4746 17.648 23.0733 16.248C23.6693 14.8493 24 13.312 24 11.6987C24 10.0867 23.6693 8.54933 23.0733 7.14933ZM18.3493 14.812C18.336 14.9547 18.3133 15.112 18.276 15.2707C18.2413 15.4307 18.192 15.5947 18.136 15.7533C18.0626 15.9573 17.928 16.152 17.7573 16.3293C17.5866 16.508 17.38 16.668 17.1653 16.8053C16.9493 16.9427 16.7253 17.056 16.5173 17.1387C16.3093 17.2213 16.1186 17.2733 15.9733 17.2853L15.952 17.2867L15.9306 17.2893L15.908 17.292L15.8853 17.2933C15.852 17.2973 15.8173 17.3 15.7813 17.304C15.7453 17.3067 15.7053 17.3107 15.6666 17.3133C15.628 17.316 15.5853 17.3187 15.5413 17.32C15.4986 17.3213 15.4533 17.3227 15.4053 17.3227H15.404C15.2906 17.3227 15.1546 17.3173 14.988 17.2987C14.8226 17.2813 14.6266 17.2507 14.392 17.1987C14.1573 17.1467 13.884 17.0733 13.564 16.9707C13.2426 16.868 12.8746 16.736 12.452 16.5667C12.012 16.3907 11.5733 16.164 11.1413 15.8933C10.7093 15.6213 10.2826 15.3027 9.8693 14.9427C9.45463 14.5827 9.05197 14.1827 8.66663 13.7453C8.2813 13.3067 7.91197 12.832 7.56397 12.3227C7.5573 12.3147 7.55197 12.3053 7.54663 12.3C7.5413 12.292 7.5373 12.2853 7.5333 12.2787C7.52797 12.272 7.5253 12.2667 7.52263 12.2627C7.51863 12.2573 7.51597 12.2533 7.5133 12.2507C7.42263 12.1307 7.3013 11.9627 7.17063 11.756C7.03997 11.5507 6.89997 11.3053 6.77197 11.0347C6.64263 10.764 6.52663 10.4667 6.4413 10.1533C6.35597 9.84 6.30263 9.51067 6.30263 9.17733C6.30263 8.80667 6.34797 8.476 6.41997 8.184C6.49197 7.892 6.59463 7.64 6.7093 7.42533C6.8253 7.20933 6.9533 7.03333 7.07997 6.89467C7.2053 6.756 7.3293 6.652 7.4333 6.58667C7.53197 6.524 7.6613 6.47067 7.80397 6.424C7.9453 6.37867 8.09997 6.34 8.24663 6.30933C8.3933 6.27867 8.5333 6.25467 8.64664 6.23867C8.75997 6.22267 8.84663 6.21333 8.88797 6.212C8.9213 6.21067 8.9453 6.20933 8.9613 6.208C8.97863 6.208 8.98797 6.20667 8.9933 6.20667C8.99863 6.20667 9.00264 6.20667 9.00663 6.20667C9.0093 6.20667 9.0133 6.20667 9.02263 6.20667C9.1093 6.20667 9.1893 6.22 9.2653 6.24533C9.33997 6.27333 9.4093 6.31333 9.47464 6.368C9.53863 6.42267 9.59863 6.49067 9.65464 6.57333C9.71064 6.656 9.7613 6.756 9.80797 6.868C9.82797 6.91467 9.8893 7.06267 9.9693 7.256C10.0506 7.45067 10.1506 7.69467 10.2506 7.93467C10.3506 8.17467 10.4493 8.41067 10.5253 8.592C10.6026 8.77467 10.656 8.90133 10.6666 8.92133C10.6786 8.94667 10.6986 8.984 10.7173 9.032C10.736 9.08 10.7546 9.13867 10.7653 9.20667C10.7773 9.27467 10.7813 9.348 10.7706 9.43067C10.76 9.512 10.736 9.59867 10.6906 9.69067L10.68 9.70933L10.6706 9.72933L10.6613 9.74933L10.6506 9.768C10.632 9.80667 10.6146 9.844 10.596 9.87867C10.5773 9.916 10.5573 9.952 10.5346 9.988C10.5133 10.0253 10.4893 10.0613 10.4626 10.1C10.4346 10.1373 10.404 10.1787 10.368 10.22C10.356 10.2333 10.344 10.248 10.3333 10.26C10.32 10.2747 10.308 10.2893 10.296 10.304C10.284 10.3173 10.272 10.332 10.2613 10.3453C10.2506 10.3587 10.2373 10.3733 10.2253 10.388C10.2 10.4173 10.176 10.448 10.1506 10.4773C10.1253 10.5067 10.1 10.5373 10.0746 10.5667C10.0493 10.596 10.0253 10.624 9.99997 10.6507C9.97464 10.6773 9.95063 10.7027 9.92663 10.7267C9.91864 10.7347 9.9093 10.7453 9.89863 10.7547C9.88797 10.7667 9.8773 10.7787 9.86664 10.7907C9.85597 10.8013 9.84663 10.812 9.83864 10.8227C9.83197 10.832 9.82663 10.8413 9.8253 10.848C9.8253 10.848 9.8253 10.8493 9.8253 10.852C9.8253 10.8547 9.82663 10.8587 9.82797 10.8653C9.8293 10.8707 9.83197 10.8787 9.8373 10.8867C9.8413 10.896 9.84663 10.9067 9.8533 10.9173C9.90263 11.0013 10.028 11.184 10.2173 11.428C10.408 11.672 10.6626 11.972 10.9706 12.2893C11.2786 12.6053 11.64 12.9373 12.04 13.2413C12.44 13.5453 12.8813 13.82 13.3506 14.024C13.372 14.0333 13.4026 14.0467 13.4386 14.0613C13.476 14.0773 13.52 14.0933 13.5586 14.1107C13.5986 14.1267 13.6373 14.14 13.6653 14.152C13.6933 14.1627 13.7146 14.1707 13.7173 14.1707C13.7226 14.1707 13.728 14.168 13.7333 14.1653C13.7386 14.1627 13.744 14.1573 13.752 14.152C13.7573 14.1467 13.7626 14.1413 13.7706 14.1347C13.776 14.128 13.7813 14.1227 13.7866 14.116C13.828 14.0693 13.892 13.996 13.9666 13.908C14.0426 13.8213 14.1306 13.7173 14.2173 13.612C14.3053 13.508 14.3933 13.4 14.4693 13.3027C14.5453 13.2053 14.6106 13.1173 14.6546 13.0533C14.6933 12.9947 14.736 12.944 14.78 12.9013C14.824 12.8573 14.8706 12.82 14.92 12.792C14.9693 12.7627 15.02 12.74 15.0746 12.7253C15.128 12.7107 15.1853 12.7027 15.2453 12.7027C15.28 12.7027 15.316 12.7053 15.352 12.7107C15.3853 12.716 15.4213 12.7227 15.4546 12.732C15.488 12.74 15.5213 12.7507 15.5546 12.76C15.5866 12.7707 15.62 12.7827 15.6506 12.792C15.7293 12.82 15.8973 12.8947 16.1053 12.992C16.3133 13.088 16.5626 13.2067 16.804 13.324C17.0453 13.44 17.2773 13.5533 17.452 13.6387C17.628 13.724 17.7466 13.7813 17.7573 13.7867C17.8146 13.8147 17.868 13.8413 17.92 13.868C17.9693 13.8947 18.0173 13.92 18.06 13.9493C18.104 13.9773 18.144 14.008 18.18 14.0427C18.2133 14.076 18.2453 14.1147 18.2706 14.1573C18.3093 14.2213 18.3346 14.312 18.3466 14.424C18.3613 14.5373 18.3613 14.6693 18.3493 14.812Z" fill="#0A7CCB"/>
</g>
<defs>
<clipPath id="clip0_5_560">
<rect width="24" height="24" fill="white"/>
</clipPath>
</defs>
</svg>
