<?xml version="1.0" standalone="no"?>
<!DOCTYPE svg PUBLIC "-//W3C//DTD SVG 20010904//EN"
 "http://www.w3.org/TR/2001/REC-SVG-20010904/DTD/svg10.dtd">
<svg version="1.0" xmlns="http://www.w3.org/2000/svg"
 width="700.000000pt" height="700.000000pt" viewBox="0 0 700.000000 700.000000"
 preserveAspectRatio="xMidYMid meet">
<metadata>
Created by potrace 1.14, written by Peter Selinger 2001-2017
</metadata>
<g transform="translate(0.000000,700.000000) scale(0.100000,-0.100000)"
fill="#000000" stroke="none">
<path d="M3309 6996 c-2 -2 -31 -6 -64 -10 -131 -12 -175 -19 -286 -41 -362
-73 -721 -223 -1014 -424 -76 -52 -194 -139 -205 -151 -3 -3 -34 -29 -70 -59
-76 -64 -234 -221 -307 -306 -46 -54 -90 -109 -179 -230 -108 -146 -268 -448
-340 -640 -66 -179 -131 -417 -149 -548 -2 -18 -6 -48 -9 -67 -16 -95 -30
-293 -29 -405 0 -74 12 -300 17 -325 1 -8 6 -37 10 -65 4 -27 9 -59 11 -70 59
-379 237 -814 470 -1146 76 -108 322 -400 391 -464 6 -5 85 -93 175 -195 142
-161 203 -229 244 -274 6 -6 64 -72 130 -146 66 -74 129 -144 140 -156 11 -11
35 -38 54 -60 19 -21 69 -77 111 -124 42 -47 92 -103 111 -124 19 -21 39 -44
45 -50 5 -6 89 -99 184 -206 96 -107 190 -213 211 -235 20 -22 117 -130 215
-240 98 -110 186 -208 195 -218 17 -19 -19 -53 557 542 99 101 269 277 628
647 144 148 292 300 329 338 l67 70 -431 427 -431 427 -62 -19 c-166 -51 -332
-74 -528 -74 -211 1 -316 16 -547 79 -85 24 -261 102 -369 164 -423 245 -730
650 -848 1120 -14 53 -30 135 -37 182 -14 93 -18 370 -7 465 15 126 58 311 72
309 5 -1 229 -219 498 -485 l489 -483 317 -1 317 0 50 47 c28 25 156 151 285
280 l235 234 0 319 -1 320 -390 387 c-214 213 -430 427 -480 477 -50 50 -96
97 -103 105 -10 12 3 18 81 36 97 23 102 24 183 35 28 3 66 8 85 11 42 5 314
5 350 0 14 -2 45 -7 70 -11 85 -12 105 -16 185 -35 44 -10 114 -31 155 -45 41
-15 84 -29 95 -33 48 -14 238 -115 320 -169 424 -280 700 -705 791 -1217 30
-168 24 -506 -11 -636 -2 -8 -7 -29 -9 -46 -3 -17 -16 -68 -29 -113 l-24 -81
261 -259 c391 -389 508 -502 511 -499 2 2 26 48 53 103 226 453 321 930 288
1440 -3 55 -8 109 -10 121 -2 11 -7 47 -10 80 -19 173 -117 522 -201 714 -144
325 -344 619 -595 870 -74 75 -173 167 -220 204 -68 54 -281 200 -385 263 -36
22 -259 131 -320 156 -216 90 -510 169 -720 192 -33 4 -69 9 -80 12 -24 5
-481 14 -486 9z"/>
</g>
</svg>
